name processed_emg_signals
nRows=91
nColumns=7
 
endheader
time	RGLTMED	RRF	RADDLONG	RST	RTA	RGM
3.2251999999999974	0.0338032485509683	0.0876642255711644	0.8369122929083991	0.0787988834123395	0.1026360443934964	0.0878486910419301
3.2351999999999976	0.0338190499768213	0.0873795011121795	0.8393807393137751	0.0786255767810689	0.102551142408091	0.0877522167082659
3.2451999999999974	0.0338369056471659	0.087094686930348	0.8418313290233002	0.0784495559309006	0.1024683049525083	0.0876685782933866
3.2551999999999977	0.0338567610197406	0.0868100773182422	0.8442659039502904	0.0782710469938589	0.1023877276739931	0.0875977423842394
3.2651999999999974	0.0338785611056794	0.0865259630202595	0.8466862577887271	0.0780902787115287	0.1023095954592244	0.0875396629779141
3.2751999999999977	0.033902250515828	0.0862426306683141	0.849094128148059	0.0779074818847491	0.1022340819871219	0.0874942813140787
3.2851999999999975	0.0339277734996049	0.0859603622315865	0.8514911890478134	0.07772288882051	0.1021613493256768	0.0874615257166222
3.2951999999999977	0.0339550739769128	0.0856794344822329	0.8538790437952382	0.0775367327786598	0.1020915475744139	0.0874413114469791
3.3051999999999975	0.0339840955636151	0.0854001184787533	0.856259218266086	0.077349247420939	0.1020248145537974	0.087433540571441
3.3151999999999977	0.0340147815910652	0.0851226790685215	0.8586331546055743	0.07716066626476	0.1019612755426371	0.0874381018445979
3.3251999999999975	0.0340470751202412	0.0848473744107879	0.8610022053636227	0.0769712221439869	0.101901043064342	0.0874548706108939
3.3351999999999977	0.034080918951074	0.084574455521277	0.8633676280757693	0.0767811466787899	0.1018442167226707	0.0874837087261676
3.3451999999999975	0.0341162556276124	0.0843041658393744	0.8657305802989461	0.0765906697564597	0.1017908830873768	0.0875244645008951
3.3551999999999973	0.0341530274397076	0.0840367408187812	0.868092115109821	0.0764000190248361	0.1017411156299278	0.0875769726667176
3.3651999999999975	0.0341911764218973	0.0837724075424696	0.8704531770728402	0.0762094193997857	0.1016949747091916	0.0876410543677096
3.3751999999999973	0.0342306443501516	0.0835113843627331	0.872814598685263	0.0760190925879013	0.1016525076068071	0.0877165171777639
3.3851999999999975	0.0342713727371306	0.0832538805671045	0.8751770973069724	0.0758292566253856	0.1016137486118086	0.0878031551453782
3.3951999999999973	0.0343133028265635	0.0830000960708394	0.8775412725831946	0.0756401254338222	0.1015787191539679	0.0879007488670536
3.4051999999999976	0.0343563755874088	0.0827502211365674	0.879907604368267	0.0754519083934178	0.1015474279852166	0.0880090655903478
3.4151999999999973	0.034400531708449	0.082504436121553	0.8822764511579864	0.0752648099341559	0.1015198714082565	0.0881278593474967
3.4251999999999976	0.0344457115940357	0.0822629112528414	0.8846480490367638	0.075079029145281	0.1014960335512463	0.0882568711204111
3.4351999999999974	0.0344918553617054	0.0820258064303795	0.8870225111440686	0.0748947594035099	0.1014758866871524	0.0883958290378094
3.4451999999999976	0.0345389028423683	0.0817932710579964	0.8893998276625722	0.0747121880204172	0.1014593915961825	0.0885444486052074
3.4551999999999974	0.0345867935837528	0.0815654439019238	0.8917798663280468	0.0745314959095714	0.1014464979695031	0.088702432968414
3.4651999999999976	0.0346354668577415	0.0813424529763523	0.8941623734583083	0.0743528572741251	0.1014371448522445	0.0888694732110137
3.4751999999999974	0.0346848616721754	0.0811244154554155	0.8965469754954838	0.074176439315676	0.1014312611235723	0.0890452486860847
3.4851999999999976	0.0347349167876345	0.0809114376110265	0.8989331810528326	0.0740024019652514	0.1014287660113826	0.0892294273822024
3.4951999999999974	0.0347855707396392	0.0807036147761183	0.9013203834545428	0.0738308976372004	0.1014295696389379	0.0894216663236324
3.505199999999997	0.0348367618666138	0.0805010313330408	0.9037078637544972	0.0736620710067048	0.101433573600571	0.0896216120046302
3.5151999999999974	0.0348884283438638	0.0803037607269838	0.9060947942180296	0.0734960588114521	0.1014406715633771	0.0898289008577724
3.5251999999999972	0.0349405082237114	0.0801118655043365	0.9084802422488818	0.0733329896778909	0.101450749891685	0.0900431597562436
3.5351999999999975	0.0349929394818429	0.0799253973758769	0.9108631747417986	0.0731729839723318	0.1014636882908819	0.0902640065499039
3.5451999999999972	0.0350456600698448	0.079744397304671	0.91324246283927	0.0730161536770512	0.1014793604669665	0.0904910506348468
3.5551999999999975	0.0350986079738755	0.0795688956185858	0.9156168870687778	0.0728626022914399	0.1014976347979436	0.090723893556054
3.5651999999999973	0.0351517212793452	0.0793989121473392	0.9179851428346656	0.0727124247581257	0.1015183750129311	0.0909621296427207
3.5751999999999975	0.0352049382414488	0.0792344563839646	0.9203458462367808	0.0725657074138602	0.1015414408746663	0.0912053466758189
3.5851999999999973	0.0352581973612988	0.0790755276705367	0.9226975401869224	0.0724225279647738	0.1015666888609514	0.09145312658744
3.5951999999999975	0.0353114374673532	0.0789221154078815	0.925038700794276	0.07228295548547	0.1015939728405181	0.0917050461913312
3.6051999999999973	0.035364597801754	0.0787741992889022	0.9273677439919934	0.0721470504413386	0.1016231447388991	0.0919606779438811
3.6151999999999975	0.0354176181111349	0.0786317495549766	0.9296830323785218	0.0720148647335165	0.1016540551902539	0.0922195907346088
3.6251999999999973	0.035470438741412	0.0784947272747563	0.9319828822487032	0.0718864417660125	0.1016865541716707	0.0924813507049962
3.635199999999997	0.0355230007360199	0.0783630846445413	0.9342655707908504	0.0717618165345874	0.1017204916169696	0.0927455220943141
3.6451999999999973	0.0355752459370347	0.0782367653093113	0.9365293434264396	0.071641015737009	0.1017557180073359	0.0930116681108966
3.655199999999997	0.0356271170886304	0.0781157047034168	0.9387724212686284	0.0715240579042554	0.1017920849361779	0.0932793518271302
3.6651999999999973	0.0356785579423067	0.0779998304098602	0.9409930086752036	0.0714109535522002	0.1018294456456339	0.0935481370961907
3.675199999999997	0.0357295133633745	0.0778890625370808	0.9431893008712814	0.0713017053532753	0.1018676555323191	0.0938175894883249
3.6851999999999974	0.0357799294381739	0.0777833141120717	0.9453594916170512	0.0711963083275347	0.1019065726203065	0.094087277244254
3.695199999999997	0.0358297535815723	0.077682491488602	0.9475017808956632	0.0710947500524776	0.1019460579999509	0.0943567722430955
3.7051999999999974	0.0358789346442713	0.0775864947691756	0.9496143825959978	0.0709970108908562	0.1019859762319604	0.0946256509820099
3.715199999999997	0.0359274230194881	0.0774952182392174	0.9516955321648636	0.0709030642355654	0.1020261957168953	0.094893495564633
3.7251999999999974	0.0359751707485817	0.0774085508118615	0.9537434942028824	0.0708128767705695	0.1020665890309448	0.0951598946951557
3.735199999999997	0.0360221316251942	0.0773263764815851	0.9557565699775358	0.0707264087466885	0.1021070332292642	0.0954244446747135
3.7451999999999974	0.0360682612975174	0.0772485747848867	0.9577331048254044	0.0706436142709678	0.102147410118409	0.0956867503966103
3.755199999999997	0.036113517368296	0.0771750212661559	0.959671495414032	0.0705644416082998	0.1021876064994636	0.0959464263367908
3.7651999999999974	0.0361578594921526	0.077105587946912	0.9615701968322872	0.0704888334939215	0.1022275143834884	0.0962030975359685
3.7751999999999972	0.036201249469825	0.0770401437966498	0.9634277294767196	0.070416727455437	0.1022670311808336	0.0964564005697856
3.785199999999997	0.036243651338871	0.0769785552035921	0.9652426857000588	0.0703480561430913	0.1023060598658632	0.0967059845033085
3.7951999999999972	0.0362850314604061	0.0769206864437197	0.967013736186955	0.070282747667138	0.1023445091185517	0.0969515118260463
3.805199999999997	0.0363253586014403	0.0768664001465136	0.9687396360217648	0.0702207259412517	0.102382293444311	0.0971926593634968
3.8151999999999973	0.0363646040123726	0.0768155577558889	0.9704192304133472	0.070161911030979	0.1024193332731793	0.097429119161029
3.825199999999997	0.0364027414992115	0.0767680199847883	0.97205146004206	0.0701062195062552	0.1024555550392473	0.0976605993357413
3.8351999999999973	0.0364397474901238	0.0767236472618705	0.9736353659943876	0.0700535647969364	0.1024908912408747	0.0978868248917905
3.845199999999997	0.03647560109595	0.0766823001686552	0.9751700942519675	0.0700038575502501	0.1025252804819342	0.0981075384946132
3.8551999999999973	0.036510284164333	0.0766438398654716	0.9766548997051578	0.0699570059890022	0.1025586674939941	0.0983225011993785
3.865199999999997	0.0365437813271015	0.0766081285045718	0.9780891496665236	0.0699129162693893	0.1025910031390861	0.0985314931288968
3.8751999999999973	0.0365760800405229	0.0765750296288179	0.9794723268653842	0.0698714928372884	0.1026222443925154	0.0987343140960417
3.885199999999997	0.0366071706180311	0.0765444085543632	0.9808040319093624	0.0698326387819286	0.102652354305198	0.0989307841655774
3.8951999999999973	0.0366370462549986	0.0765161327357394	0.9820839852020332	0.0697962561858091	0.1026813019452024	0.099120744150103
3.905199999999997	0.0366657030450782	0.0764900721117616	0.9833120283073296	0.0697622464696664	0.1027090623184549	0.0993040560346973
3.915199999999997	0.0366931399875547	0.0764660994306643	0.9844881247517516	0.0697305107311926	0.1027356162687295	0.0994806033248521
3.925199999999997	0.0367193589850778	0.0764440905529114	0.9856123602549774	0.0697009500760858	0.1027609503570398	0.099650291312411
3.935199999999997	0.0367443648310719	0.0764239247301062	0.986684942378581	0.0696734659398944	0.1027850567204849	0.0998130472544286
3.945199999999997	0.0367681651860768	0.0764054848583629	0.987706199581654	0.0696479603990309	0.1028079329105396	0.099968820460029
3.955199999999997	0.0367907705422178	0.0763886577043801	0.9886765796718376	0.0696243364692687	0.1028295817108212	0.1001175822803903
3.965199999999997	0.0368121941750239	0.0763733341024406	0.9895966476415674	0.0696024983900286	0.1028500109344981	0.1002593259970564
3.975199999999997	0.0368324520818634	0.0763594091207212	0.9904670828836204	0.069582351892728	0.1028692332016814	0.1003940666041517
3.985199999999997	0.0368515629064883	0.0763467821957901	0.9912886757877124	0.0695638044515118	0.1028872656972934	0.1005218404811671
3.995199999999997	0.0368695478494257	0.0763353572349135	0.9920623237302116	0.0695467655147592	0.102904129910069	0.1006427049548097
4.005199999999998	0.0368864305642891	0.0763250426866326	0.99278902648024	0.0695311467159338	0.1029198513535281	0.1007567377504531
4.015199999999997	0.0369022370403144	0.0763157515808129	0.9934698810556378	0.0695168620626196	0.1029344592699831	0.1008640363355245
4.025199999999997	0.0369169954717153	0.0763074015397913	0.9941060760701408	0.0695038281029696	0.1029479863189602	0.1009647171584142
4.035199999999997	0.0369307361146493	0.0762999147624653	0.9946988856184216	0.0694919640692726	0.1029604682518209	0.1010589147874146
4.045199999999998	0.0369434911327707	0.0762932179832136	0.9952496627485368	0.0694811919987997	0.1029719435747676	0.101146780954898
4.0551999999999975	0.0369552944324323	0.0762872424076368	0.995759832572168	0.0694714368325169	0.1029824532027422	0.1012284835125519
4.065199999999997	0.0369661814886722	0.0762819236271612	0.9962308850626512	0.0694626264926134	0.1029920401069275	0.1013042053041489
4.075199999999997	0.0369761891631875	0.0762772015146481	0.9966643675898088	0.0694546919400434	0.1030007489586267	0.1013741429630267
4.085199999999997	0.036985355515592	0.0762730201032288	0.9970618772390542	0.069447567213383	0.1030086257723546	0.1014385056420626
4.095199999999997	0.0369937196092924	0.0762693274505821	0.9974250529601636	0.06944118945027	0.1030157175509653	0.1014975136842597
4.105199999999997	0.0370013213133102	0.0762660754908242	0.997755567588842	0.0694354988925481	0.103022071935621	0.1015513972422155
4.115199999999997	0.0370082011013334	0.076263219876038	0.9980551197821638	0.0694304388761346	0.1030277368633811	0.1016003948547547
4.125199999999997	0.0370143998492088	0.0762607198093208	0.998325425907402	0.0694259558065876	0.1030327602351057	0.1016447519891279
